<svg width="1091" height="1091" viewBox="0 0 1091 1091" fill="none" xmlns="http://www.w3.org/2000/svg">
<path d="M0 0H1091V1091H0V0Z" fill="#232425"/>
<path d="M501.125 312.482V690.977C501.125 691.88 501.125 692.873 501.125 693.957C501.125 731.527 490.649 761.871 469.697 784.991C448.925 808.111 422.103 819.671 389.23 819.671C388.688 819.671 388.146 819.671 387.604 819.671C366.832 819.671 348.319 816.329 332.063 809.646V734.868C353.557 741.19 368.187 744.351 375.954 744.351C396.184 744.351 406.299 727.824 406.299 694.77V312.482H501.125Z" fill="white"/>
<path d="M726.001 708.588H632.257V551.446L539.056 312.482H638.218L679.671 435.215C693.037 396.02 706.764 355.109 720.853 312.482H819.473L726.001 548.737V708.588Z" fill="white"/>
</svg>
